
<svg xmlns="http://www.w3.org/2000/svg"
     xmlns:xlink="http://www.w3.org/1999/xlink" version="1.1" width="966"
     height="361">
    <defs>
        <linearGradient x1="0%" y1="0%" x2="0%" y2="100%"
                        id="mx-gradient-ffffff-1-ffffff-1-s-0">
            <stop offset="0%" style="stop-color:#ffffff"/>
            <stop offset="100%" style="stop-color:#ffffff"/>
        </linearGradient>
    </defs>
    <g transform=" scale(0.9) translate(-244.515625,-415.6875)">
        <rect x="516.6" y="474.6" width="2.8" height="2.8" fill="#000000"
              stroke="none" transform="rotate(90,518,518)" pointer-events="none"/>
        <rect x="516.6" y="558.6" width="2.8" height="2.8" fill="#000000"
              stroke="none" transform="rotate(90,518,518)" pointer-events="none"/>
        <path d="M 518 492.8 L 527.8 497 L 518 501.2" fill="none"
              stroke="#000000" stroke-width="2.8" stroke-linejoin="round"
              stroke-linecap="round" stroke-miterlimit="10"
              transform="rotate(90,518,518)" pointer-events="none"/>
        <path d="M 518 501.2 L 508.2 505.4 L 518 509.6" fill="none"
              stroke="#000000" stroke-width="2.8" stroke-linejoin="round"
              stroke-linecap="round" stroke-miterlimit="10"
              transform="rotate(90,518,518)" pointer-events="none"/>
        <path d="M 518 509.6 L 527.8 513.8 L 518 518" fill="none"
              stroke="#000000" stroke-width="2.8" stroke-linejoin="round"
              stroke-linecap="round" stroke-miterlimit="10"
              transform="rotate(90,518,518)" pointer-events="none"/>
        <path d="M 518 518 L 508.2 522.2 L 518 526.4" fill="none"
              stroke="#000000" stroke-width="2.8" stroke-linejoin="round"
              stroke-linecap="round" stroke-miterlimit="10"
              transform="rotate(90,518,518)" pointer-events="none"/>
        <path d="M 518 526.4 L 527.8 530.6 L 518 534.8" fill="none"
              stroke="#000000" stroke-width="2.8" stroke-linejoin="round"
              stroke-linecap="round" stroke-miterlimit="10"
              transform="rotate(90,518,518)" pointer-events="none"/>
        <path d="M 518 534.8 L 508.2 539 L 518 543.2" fill="none"
              stroke="#000000" stroke-width="2.8" stroke-linejoin="round"
              stroke-linecap="round" stroke-miterlimit="10"
              transform="rotate(90,518,518)" pointer-events="none"/>
        <path d="M 518 477.4 L 518 491.4" fill="#000000" stroke="#000000"
              stroke-width="2.8" stroke-linecap="square" stroke-miterlimit="10"
              transform="rotate(90,518,518)" pointer-events="none"/>
        <path d="M 518 544.6 L 518 558.6" fill="#000000" stroke="#000000"
              stroke-width="2.8" stroke-linecap="square" stroke-miterlimit="10"
              transform="rotate(90,518,518)" pointer-events="none"/>
        <rect x="504" y="532" width="23.8" height="19.6" fill-opacity="0"
              fill="#dae2f2" stroke="none" pointer-events="none"/>
        <g fill="#000000" font-family="Arial,Helvetica" font-weight="bold"
           text-anchor="middle" font-size="16.799999999999997px">
            <text x="515.9" y="547.4">
                0.1
            </text>
        </g>
        <rect x="504" y="490" width="28" height="18.2" fill-opacity="0"
              fill="#dae2f2" stroke="none" pointer-events="none"/>
        <g fill="#000000" font-family="Arial,Helvetica" font-weight="bold"
           text-anchor="middle" font-size="16.799999999999997px">
            <text x="518" y="504.7">
                R15
            </text>
        </g>
        <rect x="516.6" y="656.6" width="2.8" height="2.8" fill="#000000"
              stroke="none" transform="rotate(90,518,700)" pointer-events="none"/>
        <rect x="516.6" y="740.6" width="2.8" height="2.8" fill="#000000"
              stroke="none" transform="rotate(90,518,700)" pointer-events="none"/>
        <path d="M 518 674.8 L 527.8 679 L 518 683.2" fill="none"
              stroke="#000000" stroke-width="2.8" stroke-linejoin="round"
              stroke-linecap="round" stroke-miterlimit="10"
              transform="rotate(90,518,700)" pointer-events="none"/>
        <path d="M 518 683.2 L 508.2 687.4 L 518 691.6" fill="none"
              stroke="#000000" stroke-width="2.8" stroke-linejoin="round"
              stroke-linecap="round" stroke-miterlimit="10"
              transform="rotate(90,518,700)" pointer-events="none"/>
        <path d="M 518 691.6 L 527.8 695.8 L 518 700" fill="none"
              stroke="#000000" stroke-width="2.8" stroke-linejoin="round"
              stroke-linecap="round" stroke-miterlimit="10"
              transform="rotate(90,518,700)" pointer-events="none"/>
        <path d="M 518 700 L 508.2 704.2 L 518 708.4" fill="none"
              stroke="#000000" stroke-width="2.8" stroke-linejoin="round"
              stroke-linecap="round" stroke-miterlimit="10"
              transform="rotate(90,518,700)" pointer-events="none"/>
        <path d="M 518 708.4 L 527.8 712.6 L 518 716.8" fill="none"
              stroke="#000000" stroke-width="2.8" stroke-linejoin="round"
              stroke-linecap="round" stroke-miterlimit="10"
              transform="rotate(90,518,700)" pointer-events="none"/>
        <path d="M 518 716.8 L 508.2 721 L 518 725.2" fill="none"
              stroke="#000000" stroke-width="2.8" stroke-linejoin="round"
              stroke-linecap="round" stroke-miterlimit="10"
              transform="rotate(90,518,700)" pointer-events="none"/>
        <path d="M 518 659.4 L 518 673.4" fill="#000000" stroke="#000000"
              stroke-width="2.8" stroke-linecap="square" stroke-miterlimit="10"
              transform="rotate(90,518,700)" pointer-events="none"/>
        <path d="M 518 726.6 L 518 740.6" fill="#000000" stroke="#000000"
              stroke-width="2.8" stroke-linecap="square" stroke-miterlimit="10"
              transform="rotate(90,518,700)" pointer-events="none"/>
        <rect x="504" y="672" width="28" height="18.2" fill-opacity="0"
              fill="#dae2f2" stroke="none" pointer-events="none"/>
        <g fill="#000000" font-family="Arial,Helvetica" font-weight="bold"
           text-anchor="middle" font-size="16.799999999999997px">
            <text x="518" y="686.7">
                R21
            </text>
        </g>
        <rect x="504" y="714" width="23.8" height="19.6" fill-opacity="0"
              fill="#dae2f2" stroke="none" pointer-events="none"/>
        <g fill="#000000" font-family="Arial,Helvetica" font-weight="bold"
           text-anchor="middle" font-size="16.799999999999997px">
            <text x="515.9" y="729.4">
                0.1
            </text>
        </g>
        <rect x="630" y="588" width="70" height="56"
              fill="url(#mx-gradient-ffffff-1-ffffff-1-s-0)" stroke="#000000"
              stroke-width="1.4" pointer-events="none"/>
        <rect x="600.6" y="614.6" width="2.8" height="2.8" fill="#000000"
              stroke="none" pointer-events="none"/>
        <path d="M 603.4 616 L 628.6 616" fill="#000000" stroke="#000000"
              stroke-width="2.8" stroke-linecap="square" stroke-miterlimit="10"
              pointer-events="none"/>
        <g fill="#000000" font-family="Arial,Helvetica" font-weight="bold"
           font-size="16.799999999999997px">
            <text x="632.8" y="621.1">
                In
            </text>
        </g>
        <rect x="726.6" y="614.6" width="2.8" height="2.8" fill="#000000"
              stroke="none" pointer-events="none"/>
        <path d="M 701.4 616 L 726.6 616" fill="#000000" stroke="#000000"
              stroke-width="2.8" stroke-linecap="square" stroke-miterlimit="10"
              pointer-events="none"/>
        <g fill="#000000" font-family="Arial,Helvetica" font-weight="bold"
           text-anchor="end" font-size="16.799999999999997px">
            <text x="696.2" y="621.1">
                Out
            </text>
        </g>
        <rect x="658" y="560" width="19.6" height="18.2" fill-opacity="0"
              fill="#dae2f2" stroke="none" pointer-events="none"/>
        <g fill="#000000" font-family="Arial,Helvetica" font-weight="bold"
           text-anchor="middle" font-size="16.799999999999997px">
            <text x="667.8" y="574.7">
                U2
            </text>
        </g>
        <rect x="602" y="644" width="110.6" height="19.6" fill-opacity="0"
              fill="#dae2f2" stroke="none" pointer-events="none"/>
        <g fill="#000000" font-family="Arial,Helvetica" font-weight="bold"
           text-anchor="middle" font-size="16.799999999999997px">
            <text x="657.3" y="659.4">
                Current Limiter
            </text>
        </g>
        <path d="M 560 518 L 560 697.2" fill="none" stroke="#000000"
              stroke-width="2.8" stroke-miterlimit="10" pointer-events="none"/>
        <ellipse cx="560" cy="700" rx="2.8" ry="2.8" fill="#000000"
                 stroke="#000000" stroke-width="2.8" pointer-events="none"/>
        <rect x="770" y="588" width="70" height="56"
              fill="url(#mx-gradient-ffffff-1-ffffff-1-s-0)" stroke="#000000"
              stroke-width="1.4" pointer-events="none"/>
        <rect x="740.6" y="614.6" width="2.8" height="2.8" fill="#000000"
              stroke="none" pointer-events="none"/>
        <path d="M 743.4 616 L 768.6 616" fill="#000000" stroke="#000000"
              stroke-width="2.8" stroke-linecap="square" stroke-miterlimit="10"
              pointer-events="none"/>
        <g fill="#000000" font-family="Arial,Helvetica" font-weight="bold"
           font-size="16.799999999999997px">
            <text x="772.8" y="621.1">
                In
            </text>
        </g>
        <rect x="793.8" y="560" width="23.8" height="18.2" fill-opacity="0"
              fill="#dae2f2" stroke="none" pointer-events="none"/>
        <g fill="#000000" font-family="Arial,Helvetica" font-weight="bold"
           text-anchor="middle" font-size="16.799999999999997px">
            <text x="805.7" y="574.7">
                PI1
            </text>
        </g>
        <rect x="866.6" y="614.6" width="2.8" height="2.8" fill="#000000"
              stroke="none" pointer-events="none"/>
        <path d="M 841.4 616 L 866.6 616" fill="#000000" stroke="#000000"
              stroke-width="2.8" stroke-linecap="square" stroke-miterlimit="10"
              pointer-events="none"/>
        <g fill="#000000" font-family="Arial,Helvetica" font-weight="bold"
           text-anchor="end" font-size="16.799999999999997px">
            <text x="836.2" y="621.1">
                Out
            </text>
        </g>
        <rect x="784" y="644" width="49" height="18.2" fill-opacity="0"
              fill="#dae2f2" stroke="none" pointer-events="none"/>
        <g fill="#000000" font-family="Arial,Helvetica" font-weight="bold"
           text-anchor="middle" font-size="16.799999999999997px">
            <text x="808.5" y="658.7">
                EMIFIL
            </text>
        </g>
        <rect x="880.6" y="642.6" width="2.8" height="2.8" fill="#000000"
              stroke="none" transform="rotate(90,889,623)" pointer-events="none"/>
        <path d="M 882 617.4 L 882 642.6" fill="#000000" stroke="#000000"
              stroke-width="2.8" stroke-linecap="square" stroke-miterlimit="10"
              transform="rotate(90,889,623)" pointer-events="none"/>
        <path d="M 868 616 L 896 616" fill="none" stroke="#000000"
              stroke-width="2.8" stroke-linecap="square" stroke-miterlimit="10"
              transform="rotate(90,889,623)" pointer-events="none"/>
        <rect x="924" y="616" width="302.4" height="18.2" fill-opacity="0"
              fill="#dae2f2" stroke="none" pointer-events="none"/>
        <g fill="#000000" font-family="Arial,Helvetica" font-weight="bold"
           text-anchor="middle" font-size="16.799999999999997px">
            <text x="1075.2" y="630.7">
                VS on parts: H2,H3,J2/P2,J3/P3,J4,JP1-JP6
            </text>
        </g>
        <path d="M 742 616 L 728 616" fill="none" stroke="#000000"
              stroke-width="2.8" stroke-miterlimit="10" pointer-events="none"/>
        <path d="M 868 616 L 868 616" fill="none" stroke="#000000"
              stroke-width="2.8" stroke-miterlimit="10" pointer-events="none"/>
        <rect x="432.6" y="572.6" width="2.8" height="2.8" fill="#000000"
              stroke="none" pointer-events="none"/>
        <path d="M 434 575.4 L 434 600.6" fill="#000000" stroke="#000000"
              stroke-width="2.8" stroke-linecap="square" stroke-miterlimit="10"
              pointer-events="none"/>
        <path d="M 418.6 601.34 L 449.4 601.34 L 434 627.94 Z" fill="#ffffff"
              stroke="#000000" stroke-width="2.8" stroke-linejoin="round"
              stroke-linecap="square" stroke-miterlimit="10"
              pointer-events="none"/>
        <rect x="432.6" y="754.6" width="2.8" height="2.8" fill="#000000"
              stroke="none" pointer-events="none"/>
        <path d="M 434 757.4 L 434 782.6" fill="#000000" stroke="#000000"
              stroke-width="2.8" stroke-linecap="square" stroke-miterlimit="10"
              pointer-events="none"/>
        <path d="M 418.6 783.34 L 449.4 783.34 L 434 809.94 Z" fill="#ffffff"
              stroke="#000000" stroke-width="2.8" stroke-linejoin="round"
              stroke-linecap="square" stroke-miterlimit="10"
              pointer-events="none"/>
        <path d="M 602 616 L 562.8 616" fill="none" stroke="#000000"
              stroke-width="2.8" stroke-miterlimit="10" pointer-events="none"/>
        <ellipse cx="560" cy="616" rx="2.8" ry="2.8" fill="#000000"
                 stroke="#000000" stroke-width="2.8" pointer-events="none"/>
        <rect x="334.6" y="530.6" width="2.8" height="2.8" fill="#000000"
              stroke="none" transform="rotate(270,336,518)"
              pointer-events="none"/>
        <ellipse cx="336" cy="518" rx="5.789" ry="5.789" fill="#ffffff"
                 stroke="#000000" stroke-width="2.8"
                 transform="rotate(270,336,518)" pointer-events="none"/>
        <path d="M 336 525 L 336 530.6" fill="#ffffff" stroke="#000000"
              stroke-width="2.8" stroke-linecap="square" stroke-miterlimit="10"
              transform="rotate(270,336,518)" pointer-events="none"/>
        <rect x="266" y="504" width="57.4" height="18.2" fill-opacity="0"
              fill="#dae2f2" stroke="none" pointer-events="none"/>
        <g fill="#000000" font-family="Arial,Helvetica" font-weight="bold"
           text-anchor="middle" font-size="16.799999999999997px">
            <text x="292.7" y="518.7">
                VS-USB
            </text>
        </g>
        <rect x="334.6" y="558.6" width="2.8" height="2.8" fill="#000000"
              stroke="none" transform="rotate(270,336,546)"
              pointer-events="none"/>
        <ellipse cx="336" cy="546" rx="5.789" ry="5.789" fill="#ffffff"
                 stroke="#000000" stroke-width="2.8"
                 transform="rotate(270,336,546)" pointer-events="none"/>
        <path d="M 336 553 L 336 558.6" fill="#ffffff" stroke="#000000"
              stroke-width="2.8" stroke-linecap="square" stroke-miterlimit="10"
              transform="rotate(270,336,546)" pointer-events="none"/>
        <rect x="252" y="532" width="71.4" height="18.2" fill-opacity="0"
              fill="#dae2f2" stroke="none" pointer-events="none"/>
        <g fill="#000000" font-family="Arial,Helvetica" font-weight="bold"
           text-anchor="middle" font-size="16.799999999999997px">
            <text x="305.7" y="546.7">
                GND
            </text>
        </g>
        <rect x="334.6" y="712.6" width="2.8" height="2.8" fill="#000000"
              stroke="none" transform="rotate(270,336,700)"
              pointer-events="none"/>
        <ellipse cx="336" cy="700" rx="5.789" ry="5.789" fill="#ffffff"
                 stroke="#000000" stroke-width="2.8"
                 transform="rotate(270,336,700)" pointer-events="none"/>
        <path d="M 336 707 L 336 712.6" fill="#ffffff" stroke="#000000"
              stroke-width="2.8" stroke-linecap="square" stroke-miterlimit="10"
              transform="rotate(270,336,700)" pointer-events="none"/>
        <rect x="281.4" y="686" width="42" height="18.2" fill-opacity="0"
              fill="#dae2f2" stroke="none" pointer-events="none"/>
        <g fill="#000000" font-family="Arial,Helvetica" font-weight="bold"
           text-anchor="middle" font-size="16.799999999999997px">
            <text x="290.0" y="700.7">
                VS-OEM
            </text>
        </g>
        <rect x="334.6" y="740.6" width="2.8" height="2.8" fill="#000000"
              stroke="none" transform="rotate(270,336,728)"
              pointer-events="none"/>
        <ellipse cx="336" cy="728" rx="5.789" ry="5.789" fill="#ffffff"
                 stroke="#000000" stroke-width="2.8"
                 transform="rotate(270,336,728)" pointer-events="none"/>
        <path d="M 336 735 L 336 740.6" fill="#ffffff" stroke="#000000"
              stroke-width="2.8" stroke-linecap="square" stroke-miterlimit="10"
              transform="rotate(270,336,728)" pointer-events="none"/>
        <rect x="267.4" y="714" width="56" height="18.2" fill-opacity="0"
              fill="#dae2f2" stroke="none" pointer-events="none"/>
        <g fill="#000000" font-family="Arial,Helvetica" font-weight="bold"
           text-anchor="middle" font-size="16.799999999999997px">
            <text x="305.7" y="728.7">
                GND
            </text>
        </g>
        <rect x="348.6" y="726.6" width="2.8" height="2.8" fill="#000000"
              stroke="none" pointer-events="none"/>
        <path d="M 350 729.4 L 350 754.6" fill="#000000" stroke="#000000"
              stroke-width="2.8" stroke-linecap="square" stroke-miterlimit="10"
              pointer-events="none"/>
        <path d="M 334.6 755.34 L 365.4 755.34 L 350 781.94 Z" fill="#ffffff"
              stroke="#000000" stroke-width="2.8" stroke-linejoin="round"
              stroke-linecap="square" stroke-miterlimit="10"
              pointer-events="none"/>
        <rect x="348.6" y="544.6" width="2.8" height="2.8" fill="#000000"
              stroke="none" pointer-events="none"/>
        <path d="M 350 547.4 L 350 572.6" fill="#000000" stroke="#000000"
              stroke-width="2.8" stroke-linecap="square" stroke-miterlimit="10"
              pointer-events="none"/>
        <path d="M 334.6 573.34 L 365.4 573.34 L 350 599.94 Z" fill="#ffffff"
              stroke="#000000" stroke-width="2.8" stroke-linejoin="round"
              stroke-linecap="square" stroke-miterlimit="10"
              pointer-events="none"/>
        <rect x="586.6" y="712.6" width="2.8" height="2.8" fill="#000000"
              stroke="none" transform="rotate(90,588,700)" pointer-events="none"/>
        <ellipse cx="588" cy="700" rx="5.789" ry="5.789" fill="#ffffff"
                 stroke="#000000" stroke-width="2.8"
                 transform="rotate(90,588,700)" pointer-events="none"/>
        <path d="M 588 707 L 588 712.6" fill="#ffffff" stroke="#000000"
              stroke-width="2.8" stroke-linecap="square" stroke-miterlimit="10"
              transform="rotate(90,588,700)" pointer-events="none"/>
        <rect x="574" y="714" width="30.8" height="19.6" fill-opacity="0"
              fill="#dae2f2" stroke="none" pointer-events="none"/>
        <g fill="#000000" font-family="Arial,Helvetica" font-weight="bold"
           text-anchor="middle" font-size="16.799999999999997px">
            <text x="589.4" y="729.4">
                TP2
            </text>
        </g>
        <rect x="602" y="742" width="236.6" height="18.2" fill-opacity="0"
              fill="#dae2f2" stroke="none" pointer-events="none"/>
        <g fill="#000000" font-family="Arial,Helvetica" font-weight="bold"
           text-anchor="middle" font-size="16.799999999999997px">
            <text x="720.3" y="756.7">
                PCB-Test-point-"Vs" aka "Vsupply"
            </text>
        </g>
        <rect x="588" y="770" width="179.2" height="18.2" fill-opacity="0"
              fill="#dae2f2" stroke="none" pointer-events="none"/>
        <g fill="#000000" font-family="Arial,Helvetica" font-weight="bold"
           text-anchor="middle" font-size="16.799999999999997px">
            <text x="677.6" y="784.7">
                (Intermediate Vsupply rail)
            </text>
        </g>
        <rect x="432.6" y="488.6" width="2.8" height="2.8" fill="#000000"
              stroke="none" pointer-events="none"/>
        <ellipse cx="434" cy="476" rx="5.789" ry="5.789" fill="#ffffff"
                 stroke="#000000" stroke-width="2.8" pointer-events="none"/>
        <path d="M 434 483 L 434 488.6" fill="#ffffff" stroke="#000000"
              stroke-width="2.8" stroke-linecap="square" stroke-miterlimit="10"
              pointer-events="none"/>
        <rect x="434" y="448" width="159.6" height="18.2" fill-opacity="0"
              fill="#dae2f2" stroke="none" pointer-events="none"/>
        <g fill="#000000" font-family="Arial,Helvetica" font-weight="bold"
           text-anchor="middle" font-size="16.799999999999997px">
            <text x="513.8" y="462.7">
                PCB-Test-point-"Vhost"
            </text>
        </g>
        <rect x="420" y="420" width="28" height="18.2" fill-opacity="0"
              fill="#dae2f2" stroke="none" pointer-events="none"/>
        <g fill="#000000" font-family="Arial,Helvetica" font-weight="bold"
           text-anchor="middle" font-size="16.799999999999997px">
            <text x="434" y="434.7">
                TP1
            </text>
        </g>
        <rect x="432.6" y="782.6" width="2.8" height="2.8" fill="#000000"
              stroke="none" pointer-events="none"/>
        <rect x="432.6" y="698.6" width="2.8" height="2.8" fill="#000000"
              stroke="none" pointer-events="none"/>
        <path d="M 416.36 738.78 L 425.88 729.26 L 442.93 729.34 L 451.68 720.61"
              fill="none" stroke="#000000" stroke-width="2.8"
              stroke-miterlimit="10" pointer-events="none"/>
        <path d="M 433.8 731.56 C 433.8 731.56 433.8 731.56 422.8 752.16 C 444.81 752.16 444.81 752.16 444.81 752.16 Z"
              fill="#000000" stroke="#000000" stroke-width="2.09"
              stroke-linejoin="round" stroke-linecap="round"
              stroke-miterlimit="10" pointer-events="none"/>
        <path d="M 434 743.4 L 434 782.6" fill="#000000" stroke="#000000"
              stroke-width="2.8" stroke-linecap="square" stroke-miterlimit="10"
              pointer-events="none"/>
        <path d="M 434 701.4 L 434 726.6" fill="#000000" stroke="#000000"
              stroke-width="2.8" stroke-linecap="square" stroke-miterlimit="10"
              pointer-events="none"/>
        <rect x="392" y="728" width="19.6" height="18.2" fill-opacity="0"
              fill="#dae2f2" stroke="none" pointer-events="none"/>
        <g fill="#000000" font-family="Arial,Helvetica" font-weight="bold"
           text-anchor="middle" font-size="16.799999999999997px">
            <text x="401.8" y="742.7">
                D2
            </text>
        </g>
        <rect x="432.6" y="600.6" width="2.8" height="2.8" fill="#000000"
              stroke="none" pointer-events="none"/>
        <rect x="432.6" y="516.6" width="2.8" height="2.8" fill="#000000"
              stroke="none" pointer-events="none"/>
        <path d="M 416.36 556.78 L 425.88 547.26 L 442.93 547.34 L 451.68 538.61"
              fill="none" stroke="#000000" stroke-width="2.8"
              stroke-miterlimit="10" pointer-events="none"/>
        <path d="M 433.8 549.56 C 433.8 549.56 433.8 549.56 422.8 570.16 C 444.81 570.16 444.81 570.16 444.81 570.16 Z"
              fill="#000000" stroke="#000000" stroke-width="2.09"
              stroke-linejoin="round" stroke-linecap="round"
              stroke-miterlimit="10" pointer-events="none"/>
        <path d="M 434 561.4 L 434 600.6" fill="#000000" stroke="#000000"
              stroke-width="2.8" stroke-linecap="square" stroke-miterlimit="10"
              pointer-events="none"/>
        <path d="M 434 519.4 L 434 544.6" fill="#000000" stroke="#000000"
              stroke-width="2.8" stroke-linecap="square" stroke-miterlimit="10"
              pointer-events="none"/>
        <rect x="392" y="546" width="19.6" height="18.2" fill-opacity="0"
              fill="#dae2f2" stroke="none" pointer-events="none"/>
        <g fill="#000000" font-family="Arial,Helvetica" font-weight="bold"
           text-anchor="middle" font-size="16.799999999999997px">
            <text x="401.8" y="560.7">
                D1
            </text>
        </g>
        <path d="M 476 518 L 434 518" fill="none" stroke="#000000"
              stroke-width="2.8" stroke-miterlimit="10" pointer-events="none"/>
        <path d="M 434 490 L 434 515.2" fill="none" stroke="#000000"
              stroke-width="2.8" stroke-miterlimit="10" pointer-events="none"/>
        <ellipse cx="434" cy="518" rx="2.8" ry="2.8" fill="#000000"
                 stroke="#000000" stroke-width="2.8" pointer-events="none"/>
        <path d="M 350 518 L 431.2 518" fill="none" stroke="#000000"
              stroke-width="2.8" stroke-miterlimit="10" pointer-events="none"/>
        <ellipse cx="434" cy="518" rx="2.8" ry="2.8" fill="#000000"
                 stroke="#000000" stroke-width="2.8" pointer-events="none"/>
        <path d="M 350 700 L 434 700" fill="none" stroke="#000000"
              stroke-width="2.8" stroke-miterlimit="10" pointer-events="none"/>
        <path d="M 476 700 L 436.8 700" fill="none" stroke="#000000"
              stroke-width="2.8" stroke-miterlimit="10" pointer-events="none"/>
        <ellipse cx="434" cy="700" rx="2.8" ry="2.8" fill="#000000"
                 stroke="#000000" stroke-width="2.8" pointer-events="none"/>
        <path d="M 574 700 L 562.8 700" fill="none" stroke="#000000"
              stroke-width="2.8" stroke-miterlimit="10" pointer-events="none"/>
        <ellipse cx="560" cy="700" rx="2.8" ry="2.8" fill="#000000"
                 stroke="#000000" stroke-width="2.8" pointer-events="none"/>
        <rect x="880.6" y="586.6" width="2.8" height="2.8" fill="#000000"
              stroke="none" transform="rotate(90,889,567)" pointer-events="none"/>
        <path d="M 882 561.4 L 882 586.6" fill="#000000" stroke="#000000"
              stroke-width="2.8" stroke-linecap="square" stroke-miterlimit="10"
              transform="rotate(90,889,567)" pointer-events="none"/>
        <path d="M 868 560 L 896 560" fill="none" stroke="#000000"
              stroke-width="2.8" stroke-linecap="square" stroke-miterlimit="10"
              transform="rotate(90,889,567)" pointer-events="none"/>
        <rect x="924" y="546" width="158.2" height="18.2" fill-opacity="0"
              fill="#dae2f2" stroke="none" pointer-events="none"/>
        <g fill="#000000" font-family="Arial,Helvetica" font-weight="bold"
           text-anchor="middle" font-size="16.799999999999997px">
            <text x="1003.1" y="560.7">
                Internal device circuitry
            </text>
        </g>
        <path d="M 868 560 L 868 613.2" fill="none" stroke="#000000"
              stroke-width="2.8" stroke-miterlimit="10" pointer-events="none"/>
        <ellipse cx="868" cy="616" rx="2.8" ry="2.8" fill="#000000"
                 stroke="#000000" stroke-width="2.8" pointer-events="none"/>
    </g>
</svg>